<mxfile host="app.diagrams.net" modified="2024-05-18T14:42:53.234Z" agent="Mozilla/5.0 (Windows NT 10.0; Win64; x64) AppleWebKit/537.36 (KHTML, like Gecko) Chrome/124.0.0.0 Safari/537.36" etag="qOx2byDjYxgqTsneLVs8" version="24.4.4" type="device">
  <diagram name="Page-1" id="v4k6_VEgHNnwVf0hL2_B">
    <mxGraphModel dx="1674" dy="746" grid="1" gridSize="10" guides="1" tooltips="1" connect="1" arrows="1" fold="1" page="1" pageScale="1" pageWidth="827" pageHeight="1169" math="0" shadow="0">
      <root>
        <mxCell id="0" />
        <mxCell id="1" parent="0" />
        <mxCell id="mWpVd9XelmYGsZtgVnFc-8" style="edgeStyle=orthogonalEdgeStyle;rounded=0;orthogonalLoop=1;jettySize=auto;html=1;exitX=1;exitY=0;exitDx=0;exitDy=0;entryX=0.5;entryY=1;entryDx=0;entryDy=0;" edge="1" parent="1" source="mWpVd9XelmYGsZtgVnFc-1" target="mWpVd9XelmYGsZtgVnFc-6">
          <mxGeometry relative="1" as="geometry" />
        </mxCell>
        <mxCell id="mWpVd9XelmYGsZtgVnFc-9" style="edgeStyle=orthogonalEdgeStyle;rounded=0;orthogonalLoop=1;jettySize=auto;html=1;" edge="1" parent="1" source="mWpVd9XelmYGsZtgVnFc-1">
          <mxGeometry relative="1" as="geometry">
            <mxPoint x="140" y="150" as="targetPoint" />
          </mxGeometry>
        </mxCell>
        <mxCell id="mWpVd9XelmYGsZtgVnFc-10" style="edgeStyle=orthogonalEdgeStyle;rounded=0;orthogonalLoop=1;jettySize=auto;html=1;exitX=1;exitY=1;exitDx=0;exitDy=0;entryX=0.5;entryY=0;entryDx=0;entryDy=0;" edge="1" parent="1" source="mWpVd9XelmYGsZtgVnFc-1" target="mWpVd9XelmYGsZtgVnFc-2">
          <mxGeometry relative="1" as="geometry" />
        </mxCell>
        <mxCell id="mWpVd9XelmYGsZtgVnFc-1" value="Member" style="rounded=0;whiteSpace=wrap;html=1;" vertex="1" parent="1">
          <mxGeometry x="80" y="190" width="120" height="60" as="geometry" />
        </mxCell>
        <mxCell id="mWpVd9XelmYGsZtgVnFc-2" value="&lt;font style=&quot;font-size: 9px;&quot;&gt;Member_city&lt;/font&gt;" style="ellipse;whiteSpace=wrap;html=1;" vertex="1" parent="1">
          <mxGeometry x="190" y="270" width="70" height="50" as="geometry" />
        </mxCell>
        <mxCell id="mWpVd9XelmYGsZtgVnFc-3" value="&lt;font style=&quot;font-size: 9px;&quot;&gt;Member_zip&lt;/font&gt;" style="ellipse;whiteSpace=wrap;html=1;" vertex="1" parent="1">
          <mxGeometry x="10" y="270" width="70" height="50" as="geometry" />
        </mxCell>
        <mxCell id="mWpVd9XelmYGsZtgVnFc-4" value="&lt;font style=&quot;font-size: 9px;&quot;&gt;Membe_name&lt;/font&gt;" style="ellipse;whiteSpace=wrap;html=1;" vertex="1" parent="1">
          <mxGeometry y="100" width="70" height="50" as="geometry" />
        </mxCell>
        <mxCell id="mWpVd9XelmYGsZtgVnFc-5" value="&lt;font style=&quot;font-size: 9px;&quot;&gt;Member_Address&lt;/font&gt;" style="ellipse;whiteSpace=wrap;html=1;" vertex="1" parent="1">
          <mxGeometry x="105" y="100" width="70" height="50" as="geometry" />
        </mxCell>
        <mxCell id="mWpVd9XelmYGsZtgVnFc-6" value="&lt;font style=&quot;font-size: 9px;&quot;&gt;Member_num&lt;/font&gt;" style="ellipse;whiteSpace=wrap;html=1;" vertex="1" parent="1">
          <mxGeometry x="210" y="100" width="70" height="50" as="geometry" />
        </mxCell>
        <mxCell id="mWpVd9XelmYGsZtgVnFc-7" style="edgeStyle=orthogonalEdgeStyle;rounded=0;orthogonalLoop=1;jettySize=auto;html=1;exitX=0;exitY=0;exitDx=0;exitDy=0;entryX=0.4;entryY=1.06;entryDx=0;entryDy=0;entryPerimeter=0;" edge="1" parent="1" source="mWpVd9XelmYGsZtgVnFc-1" target="mWpVd9XelmYGsZtgVnFc-4">
          <mxGeometry relative="1" as="geometry" />
        </mxCell>
        <mxCell id="mWpVd9XelmYGsZtgVnFc-11" style="edgeStyle=orthogonalEdgeStyle;rounded=0;orthogonalLoop=1;jettySize=auto;html=1;exitX=0;exitY=1;exitDx=0;exitDy=0;entryX=0.4;entryY=-0.06;entryDx=0;entryDy=0;entryPerimeter=0;" edge="1" parent="1" source="mWpVd9XelmYGsZtgVnFc-1" target="mWpVd9XelmYGsZtgVnFc-3">
          <mxGeometry relative="1" as="geometry">
            <Array as="points">
              <mxPoint x="38" y="250" />
            </Array>
          </mxGeometry>
        </mxCell>
        <mxCell id="mWpVd9XelmYGsZtgVnFc-16" style="edgeStyle=orthogonalEdgeStyle;rounded=0;orthogonalLoop=1;jettySize=auto;html=1;entryX=0.5;entryY=1;entryDx=0;entryDy=0;" edge="1" parent="1" source="mWpVd9XelmYGsZtgVnFc-12" target="mWpVd9XelmYGsZtgVnFc-14">
          <mxGeometry relative="1" as="geometry" />
        </mxCell>
        <mxCell id="mWpVd9XelmYGsZtgVnFc-12" value="Invitation" style="rounded=0;whiteSpace=wrap;html=1;" vertex="1" parent="1">
          <mxGeometry x="90" y="450" width="120" height="60" as="geometry" />
        </mxCell>
        <mxCell id="mWpVd9XelmYGsZtgVnFc-13" value="&lt;font style=&quot;font-size: 9px;&quot;&gt;Invite_name&lt;/font&gt;" style="ellipse;whiteSpace=wrap;html=1;" vertex="1" parent="1">
          <mxGeometry x="10" y="380" width="70" height="50" as="geometry" />
        </mxCell>
        <mxCell id="mWpVd9XelmYGsZtgVnFc-14" value="&lt;font style=&quot;font-size: 9px;&quot;&gt;Accept_sate&lt;/font&gt;" style="ellipse;whiteSpace=wrap;html=1;" vertex="1" parent="1">
          <mxGeometry x="220" y="380" width="70" height="50" as="geometry" />
        </mxCell>
        <mxCell id="mWpVd9XelmYGsZtgVnFc-15" style="edgeStyle=orthogonalEdgeStyle;rounded=0;orthogonalLoop=1;jettySize=auto;html=1;exitX=0;exitY=0;exitDx=0;exitDy=0;entryX=0.257;entryY=1.08;entryDx=0;entryDy=0;entryPerimeter=0;" edge="1" parent="1" source="mWpVd9XelmYGsZtgVnFc-12" target="mWpVd9XelmYGsZtgVnFc-13">
          <mxGeometry relative="1" as="geometry">
            <Array as="points">
              <mxPoint x="90" y="480" />
              <mxPoint x="28" y="480" />
            </Array>
          </mxGeometry>
        </mxCell>
        <mxCell id="mWpVd9XelmYGsZtgVnFc-17" value="gets" style="rhombus;whiteSpace=wrap;html=1;" vertex="1" parent="1">
          <mxGeometry x="100" y="310" width="80" height="80" as="geometry" />
        </mxCell>
        <mxCell id="mWpVd9XelmYGsZtgVnFc-21" value="" style="endArrow=none;html=1;rounded=0;entryX=0.5;entryY=1;entryDx=0;entryDy=0;" edge="1" parent="1" source="mWpVd9XelmYGsZtgVnFc-17" target="mWpVd9XelmYGsZtgVnFc-1">
          <mxGeometry width="50" height="50" relative="1" as="geometry">
            <mxPoint x="100" y="300" as="sourcePoint" />
            <mxPoint x="150" y="250" as="targetPoint" />
          </mxGeometry>
        </mxCell>
        <mxCell id="mWpVd9XelmYGsZtgVnFc-22" value="" style="endArrow=none;html=1;rounded=0;entryX=0.5;entryY=1;entryDx=0;entryDy=0;" edge="1" parent="1">
          <mxGeometry width="50" height="50" relative="1" as="geometry">
            <mxPoint x="139.5" y="450" as="sourcePoint" />
            <mxPoint x="139.5" y="390" as="targetPoint" />
          </mxGeometry>
        </mxCell>
        <mxCell id="mWpVd9XelmYGsZtgVnFc-23" value="1" style="text;html=1;align=center;verticalAlign=middle;resizable=0;points=[];autosize=1;strokeColor=none;fillColor=none;" vertex="1" parent="1">
          <mxGeometry x="135" y="270" width="30" height="30" as="geometry" />
        </mxCell>
        <mxCell id="mWpVd9XelmYGsZtgVnFc-24" value="M" style="text;html=1;align=center;verticalAlign=middle;resizable=0;points=[];autosize=1;strokeColor=none;fillColor=none;" vertex="1" parent="1">
          <mxGeometry x="135" y="398" width="30" height="30" as="geometry" />
        </mxCell>
        <mxCell id="mWpVd9XelmYGsZtgVnFc-25" value="" style="endArrow=none;html=1;rounded=0;entryX=0.5;entryY=1;entryDx=0;entryDy=0;" edge="1" parent="1">
          <mxGeometry width="50" height="50" relative="1" as="geometry">
            <mxPoint x="139.5" y="710" as="sourcePoint" />
            <mxPoint x="139.5" y="650" as="targetPoint" />
          </mxGeometry>
        </mxCell>
        <mxCell id="mWpVd9XelmYGsZtgVnFc-26" value="" style="endArrow=none;html=1;rounded=0;entryX=0.5;entryY=1;entryDx=0;entryDy=0;" edge="1" parent="1">
          <mxGeometry width="50" height="50" relative="1" as="geometry">
            <mxPoint x="139.5" y="570" as="sourcePoint" />
            <mxPoint x="139.5" y="510" as="targetPoint" />
          </mxGeometry>
        </mxCell>
        <mxCell id="mWpVd9XelmYGsZtgVnFc-27" value="sent" style="rhombus;whiteSpace=wrap;html=1;" vertex="1" parent="1">
          <mxGeometry x="100" y="570" width="80" height="80" as="geometry" />
        </mxCell>
        <mxCell id="mWpVd9XelmYGsZtgVnFc-35" style="edgeStyle=orthogonalEdgeStyle;rounded=0;orthogonalLoop=1;jettySize=auto;html=1;exitX=0;exitY=0;exitDx=0;exitDy=0;" edge="1" parent="1" source="mWpVd9XelmYGsZtgVnFc-28" target="mWpVd9XelmYGsZtgVnFc-33">
          <mxGeometry relative="1" as="geometry" />
        </mxCell>
        <mxCell id="mWpVd9XelmYGsZtgVnFc-36" style="edgeStyle=orthogonalEdgeStyle;rounded=0;orthogonalLoop=1;jettySize=auto;html=1;exitX=1;exitY=0;exitDx=0;exitDy=0;entryX=0.5;entryY=1;entryDx=0;entryDy=0;" edge="1" parent="1" source="mWpVd9XelmYGsZtgVnFc-28" target="mWpVd9XelmYGsZtgVnFc-34">
          <mxGeometry relative="1" as="geometry" />
        </mxCell>
        <mxCell id="mWpVd9XelmYGsZtgVnFc-28" value="Dinner" style="rounded=0;whiteSpace=wrap;html=1;" vertex="1" parent="1">
          <mxGeometry x="80" y="710" width="120" height="60" as="geometry" />
        </mxCell>
        <mxCell id="mWpVd9XelmYGsZtgVnFc-29" value="M&lt;div&gt;&lt;br&gt;&lt;/div&gt;" style="text;html=1;align=center;verticalAlign=middle;resizable=0;points=[];autosize=1;strokeColor=none;fillColor=none;" vertex="1" parent="1">
          <mxGeometry x="135" y="530" width="30" height="40" as="geometry" />
        </mxCell>
        <mxCell id="mWpVd9XelmYGsZtgVnFc-30" value="1" style="text;html=1;align=center;verticalAlign=middle;resizable=0;points=[];autosize=1;strokeColor=none;fillColor=none;" vertex="1" parent="1">
          <mxGeometry x="135" y="660" width="30" height="30" as="geometry" />
        </mxCell>
        <mxCell id="mWpVd9XelmYGsZtgVnFc-33" value="&lt;font style=&quot;font-size: 9px;&quot;&gt;Dinner_Desc&lt;/font&gt;" style="ellipse;whiteSpace=wrap;html=1;" vertex="1" parent="1">
          <mxGeometry x="10" y="610" width="70" height="50" as="geometry" />
        </mxCell>
        <mxCell id="mWpVd9XelmYGsZtgVnFc-34" value="&lt;font style=&quot;font-size: 9px;&quot;&gt;Dinner_Code&lt;/font&gt;" style="ellipse;whiteSpace=wrap;html=1;" vertex="1" parent="1">
          <mxGeometry x="210" y="610" width="70" height="50" as="geometry" />
        </mxCell>
        <mxCell id="mWpVd9XelmYGsZtgVnFc-37" value="basis" style="rhombus;whiteSpace=wrap;html=1;" vertex="1" parent="1">
          <mxGeometry x="100" y="830" width="80" height="80" as="geometry" />
        </mxCell>
        <mxCell id="mWpVd9XelmYGsZtgVnFc-39" value="" style="endArrow=none;html=1;rounded=0;entryX=0.5;entryY=1;entryDx=0;entryDy=0;" edge="1" parent="1">
          <mxGeometry width="50" height="50" relative="1" as="geometry">
            <mxPoint x="139.5" y="830" as="sourcePoint" />
            <mxPoint x="139.5" y="770" as="targetPoint" />
          </mxGeometry>
        </mxCell>
        <mxCell id="mWpVd9XelmYGsZtgVnFc-40" value="" style="endArrow=none;html=1;rounded=0;entryX=0.5;entryY=1;entryDx=0;entryDy=0;" edge="1" parent="1">
          <mxGeometry width="50" height="50" relative="1" as="geometry">
            <mxPoint x="139.5" y="970" as="sourcePoint" />
            <mxPoint x="139.5" y="910" as="targetPoint" />
          </mxGeometry>
        </mxCell>
        <mxCell id="mWpVd9XelmYGsZtgVnFc-49" style="edgeStyle=orthogonalEdgeStyle;rounded=0;orthogonalLoop=1;jettySize=auto;html=1;exitX=0;exitY=0;exitDx=0;exitDy=0;entryX=0;entryY=1;entryDx=0;entryDy=0;" edge="1" parent="1" source="mWpVd9XelmYGsZtgVnFc-41" target="mWpVd9XelmYGsZtgVnFc-46">
          <mxGeometry relative="1" as="geometry" />
        </mxCell>
        <mxCell id="mWpVd9XelmYGsZtgVnFc-50" style="edgeStyle=orthogonalEdgeStyle;rounded=0;orthogonalLoop=1;jettySize=auto;html=1;exitX=1;exitY=0;exitDx=0;exitDy=0;entryX=1;entryY=1;entryDx=0;entryDy=0;" edge="1" parent="1" source="mWpVd9XelmYGsZtgVnFc-41" target="mWpVd9XelmYGsZtgVnFc-44">
          <mxGeometry relative="1" as="geometry" />
        </mxCell>
        <mxCell id="mWpVd9XelmYGsZtgVnFc-41" value="Entree" style="rounded=0;whiteSpace=wrap;html=1;" vertex="1" parent="1">
          <mxGeometry x="80" y="970" width="120" height="60" as="geometry" />
        </mxCell>
        <mxCell id="mWpVd9XelmYGsZtgVnFc-42" value="M" style="text;html=1;align=center;verticalAlign=middle;resizable=0;points=[];autosize=1;strokeColor=none;fillColor=none;" vertex="1" parent="1">
          <mxGeometry x="135" y="778" width="30" height="30" as="geometry" />
        </mxCell>
        <mxCell id="mWpVd9XelmYGsZtgVnFc-43" value="1" style="text;html=1;align=center;verticalAlign=middle;resizable=0;points=[];autosize=1;strokeColor=none;fillColor=none;" vertex="1" parent="1">
          <mxGeometry x="135" y="928" width="30" height="30" as="geometry" />
        </mxCell>
        <mxCell id="mWpVd9XelmYGsZtgVnFc-44" value="&lt;font style=&quot;font-size: 9px;&quot;&gt;Entree_Desc&lt;/font&gt;" style="ellipse;whiteSpace=wrap;html=1;" vertex="1" parent="1">
          <mxGeometry x="190" y="878" width="70" height="50" as="geometry" />
        </mxCell>
        <mxCell id="mWpVd9XelmYGsZtgVnFc-46" value="&lt;font style=&quot;font-size: 9px;&quot;&gt;Entree_Code&lt;/font&gt;" style="ellipse;whiteSpace=wrap;html=1;" vertex="1" parent="1">
          <mxGeometry x="10" y="878" width="70" height="50" as="geometry" />
        </mxCell>
        <mxCell id="mWpVd9XelmYGsZtgVnFc-51" value="Dinner Attendance" style="rounded=0;whiteSpace=wrap;html=1;" vertex="1" parent="1">
          <mxGeometry x="680" y="490" width="120" height="60" as="geometry" />
        </mxCell>
        <mxCell id="mWpVd9XelmYGsZtgVnFc-52" value="Attended" style="rhombus;whiteSpace=wrap;html=1;" vertex="1" parent="1">
          <mxGeometry x="400" y="360" width="80" height="80" as="geometry" />
        </mxCell>
        <mxCell id="mWpVd9XelmYGsZtgVnFc-54" value="" style="endArrow=none;html=1;rounded=0;exitX=1.008;exitY=0.383;exitDx=0;exitDy=0;exitPerimeter=0;entryX=0.5;entryY=0;entryDx=0;entryDy=0;" edge="1" parent="1" source="mWpVd9XelmYGsZtgVnFc-1" target="mWpVd9XelmYGsZtgVnFc-52">
          <mxGeometry width="50" height="50" relative="1" as="geometry">
            <mxPoint x="280" y="230" as="sourcePoint" />
            <mxPoint x="330" y="180" as="targetPoint" />
          </mxGeometry>
        </mxCell>
        <mxCell id="mWpVd9XelmYGsZtgVnFc-55" value="" style="endArrow=none;html=1;rounded=0;exitX=1.008;exitY=0.383;exitDx=0;exitDy=0;exitPerimeter=0;entryX=-0.033;entryY=0.383;entryDx=0;entryDy=0;entryPerimeter=0;" edge="1" parent="1" target="mWpVd9XelmYGsZtgVnFc-51">
          <mxGeometry width="50" height="50" relative="1" as="geometry">
            <mxPoint x="440" y="440" as="sourcePoint" />
            <mxPoint x="679" y="587" as="targetPoint" />
          </mxGeometry>
        </mxCell>
        <mxCell id="mWpVd9XelmYGsZtgVnFc-56" value="&lt;font style=&quot;font-size: 9px;&quot;&gt;Entree_Desc&lt;/font&gt;" style="ellipse;whiteSpace=wrap;html=1;" vertex="1" parent="1">
          <mxGeometry x="720" y="723" width="70" height="50" as="geometry" />
        </mxCell>
        <mxCell id="mWpVd9XelmYGsZtgVnFc-58" value="" style="endArrow=none;html=1;rounded=0;exitX=1;exitY=1;exitDx=0;exitDy=0;entryX=1;entryY=0.5;entryDx=0;entryDy=0;" edge="1" parent="1" source="mWpVd9XelmYGsZtgVnFc-51" target="mWpVd9XelmYGsZtgVnFc-56">
          <mxGeometry width="50" height="50" relative="1" as="geometry">
            <mxPoint x="730" y="620" as="sourcePoint" />
            <mxPoint x="969" y="767" as="targetPoint" />
          </mxGeometry>
        </mxCell>
        <mxCell id="mWpVd9XelmYGsZtgVnFc-59" value="Has" style="rhombus;whiteSpace=wrap;html=1;" vertex="1" parent="1">
          <mxGeometry x="410" y="958" width="80" height="80" as="geometry" />
        </mxCell>
        <mxCell id="mWpVd9XelmYGsZtgVnFc-61" value="" style="endArrow=none;html=1;rounded=0;exitX=1;exitY=0.5;exitDx=0;exitDy=0;" edge="1" parent="1" source="mWpVd9XelmYGsZtgVnFc-41" target="mWpVd9XelmYGsZtgVnFc-59">
          <mxGeometry width="50" height="50" relative="1" as="geometry">
            <mxPoint x="350" y="1000" as="sourcePoint" />
            <mxPoint x="400" y="950" as="targetPoint" />
          </mxGeometry>
        </mxCell>
        <mxCell id="mWpVd9XelmYGsZtgVnFc-62" value="" style="endArrow=none;html=1;rounded=0;exitX=1;exitY=0.5;exitDx=0;exitDy=0;entryX=0.5;entryY=1;entryDx=0;entryDy=0;" edge="1" parent="1" source="mWpVd9XelmYGsZtgVnFc-59" target="mWpVd9XelmYGsZtgVnFc-51">
          <mxGeometry width="50" height="50" relative="1" as="geometry">
            <mxPoint x="560" y="1000" as="sourcePoint" />
            <mxPoint x="610" y="950" as="targetPoint" />
          </mxGeometry>
        </mxCell>
        <mxCell id="mWpVd9XelmYGsZtgVnFc-63" value="Dessert" style="rounded=0;whiteSpace=wrap;html=1;" vertex="1" parent="1">
          <mxGeometry x="350" y="718" width="120" height="60" as="geometry" />
        </mxCell>
        <mxCell id="mWpVd9XelmYGsZtgVnFc-64" value="&lt;font style=&quot;font-size: 9px;&quot;&gt;Dessert_Code&lt;/font&gt;" style="ellipse;whiteSpace=wrap;html=1;" vertex="1" parent="1">
          <mxGeometry x="300" y="610" width="70" height="50" as="geometry" />
        </mxCell>
        <mxCell id="mWpVd9XelmYGsZtgVnFc-65" value="&lt;font style=&quot;font-size: 9px;&quot;&gt;Dessert_Desc&lt;/font&gt;" style="ellipse;whiteSpace=wrap;html=1;" vertex="1" parent="1">
          <mxGeometry x="450" y="525" width="70" height="50" as="geometry" />
        </mxCell>
        <mxCell id="mWpVd9XelmYGsZtgVnFc-66" value="" style="endArrow=none;html=1;rounded=0;entryX=0.5;entryY=1;entryDx=0;entryDy=0;exitX=0;exitY=0;exitDx=0;exitDy=0;" edge="1" parent="1" source="mWpVd9XelmYGsZtgVnFc-63" target="mWpVd9XelmYGsZtgVnFc-64">
          <mxGeometry width="50" height="50" relative="1" as="geometry">
            <mxPoint x="350" y="710" as="sourcePoint" />
            <mxPoint x="320" y="690" as="targetPoint" />
          </mxGeometry>
        </mxCell>
        <mxCell id="mWpVd9XelmYGsZtgVnFc-67" value="" style="endArrow=none;html=1;rounded=0;exitX=1;exitY=0;exitDx=0;exitDy=0;entryX=0.286;entryY=1;entryDx=0;entryDy=0;entryPerimeter=0;" edge="1" parent="1" source="mWpVd9XelmYGsZtgVnFc-63" target="mWpVd9XelmYGsZtgVnFc-65">
          <mxGeometry width="50" height="50" relative="1" as="geometry">
            <mxPoint x="490" y="718" as="sourcePoint" />
            <mxPoint x="540" y="668" as="targetPoint" />
          </mxGeometry>
        </mxCell>
        <mxCell id="mWpVd9XelmYGsZtgVnFc-68" value="1" style="text;html=1;align=center;verticalAlign=middle;resizable=0;points=[];autosize=1;strokeColor=none;fillColor=none;" vertex="1" parent="1">
          <mxGeometry x="545" y="848" width="30" height="30" as="geometry" />
        </mxCell>
        <mxCell id="mWpVd9XelmYGsZtgVnFc-69" value="1" style="text;html=1;align=center;verticalAlign=middle;resizable=0;points=[];autosize=1;strokeColor=none;fillColor=none;" vertex="1" parent="1">
          <mxGeometry x="325" y="968" width="30" height="30" as="geometry" />
        </mxCell>
        <mxCell id="mWpVd9XelmYGsZtgVnFc-70" value="is served" style="rhombus;whiteSpace=wrap;html=1;" vertex="1" parent="1">
          <mxGeometry x="545" y="630" width="80" height="80" as="geometry" />
        </mxCell>
        <mxCell id="mWpVd9XelmYGsZtgVnFc-71" value="" style="endArrow=none;html=1;rounded=0;entryX=0.25;entryY=1;entryDx=0;entryDy=0;exitX=0.5;exitY=0;exitDx=0;exitDy=0;" edge="1" parent="1" source="mWpVd9XelmYGsZtgVnFc-70" target="mWpVd9XelmYGsZtgVnFc-51">
          <mxGeometry width="50" height="50" relative="1" as="geometry">
            <mxPoint x="640" y="590" as="sourcePoint" />
            <mxPoint x="690" y="540" as="targetPoint" />
          </mxGeometry>
        </mxCell>
        <mxCell id="mWpVd9XelmYGsZtgVnFc-72" value="" style="endArrow=none;html=1;rounded=0;entryX=0.5;entryY=1;entryDx=0;entryDy=0;exitX=1;exitY=0.5;exitDx=0;exitDy=0;" edge="1" parent="1" source="mWpVd9XelmYGsZtgVnFc-63" target="mWpVd9XelmYGsZtgVnFc-70">
          <mxGeometry width="50" height="50" relative="1" as="geometry">
            <mxPoint x="490" y="790" as="sourcePoint" />
            <mxPoint x="540" y="740" as="targetPoint" />
          </mxGeometry>
        </mxCell>
        <mxCell id="mWpVd9XelmYGsZtgVnFc-73" value="1" style="text;html=1;align=center;verticalAlign=middle;resizable=0;points=[];autosize=1;strokeColor=none;fillColor=none;" vertex="1" parent="1">
          <mxGeometry x="625" y="568" width="30" height="30" as="geometry" />
        </mxCell>
        <mxCell id="mWpVd9XelmYGsZtgVnFc-74" value="1" style="text;html=1;align=center;verticalAlign=middle;resizable=0;points=[];autosize=1;strokeColor=none;fillColor=none;" vertex="1" parent="1">
          <mxGeometry x="505" y="698" width="30" height="30" as="geometry" />
        </mxCell>
        <mxCell id="mWpVd9XelmYGsZtgVnFc-75" value="is served" style="rhombus;whiteSpace=wrap;html=1;" vertex="1" parent="1">
          <mxGeometry x="230" y="753" width="80" height="80" as="geometry" />
        </mxCell>
        <mxCell id="mWpVd9XelmYGsZtgVnFc-76" value="" style="endArrow=none;html=1;rounded=0;entryX=0;entryY=1;entryDx=0;entryDy=0;exitX=1;exitY=0.5;exitDx=0;exitDy=0;" edge="1" parent="1" source="mWpVd9XelmYGsZtgVnFc-75" target="mWpVd9XelmYGsZtgVnFc-63">
          <mxGeometry width="50" height="50" relative="1" as="geometry">
            <mxPoint x="380" y="849" as="sourcePoint" />
            <mxPoint x="380" y="778" as="targetPoint" />
          </mxGeometry>
        </mxCell>
        <mxCell id="mWpVd9XelmYGsZtgVnFc-78" value="1" style="text;html=1;align=center;verticalAlign=middle;resizable=0;points=[];autosize=1;strokeColor=none;fillColor=none;" vertex="1" parent="1">
          <mxGeometry x="315" y="758" width="30" height="30" as="geometry" />
        </mxCell>
        <mxCell id="mWpVd9XelmYGsZtgVnFc-79" value="" style="endArrow=none;html=1;rounded=0;entryX=0;entryY=0.5;entryDx=0;entryDy=0;exitX=1;exitY=0.5;exitDx=0;exitDy=0;" edge="1" parent="1" source="mWpVd9XelmYGsZtgVnFc-28" target="mWpVd9XelmYGsZtgVnFc-75">
          <mxGeometry width="50" height="50" relative="1" as="geometry">
            <mxPoint x="180" y="850" as="sourcePoint" />
            <mxPoint x="230" y="800" as="targetPoint" />
          </mxGeometry>
        </mxCell>
        <mxCell id="mWpVd9XelmYGsZtgVnFc-80" value="1" style="text;html=1;align=center;verticalAlign=middle;resizable=0;points=[];autosize=1;strokeColor=none;fillColor=none;" vertex="1" parent="1">
          <mxGeometry x="210" y="748" width="30" height="30" as="geometry" />
        </mxCell>
        <mxCell id="mWpVd9XelmYGsZtgVnFc-81" value="M" style="text;html=1;align=center;verticalAlign=middle;resizable=0;points=[];autosize=1;strokeColor=none;fillColor=none;" vertex="1" parent="1">
          <mxGeometry x="285" y="238" width="30" height="30" as="geometry" />
        </mxCell>
        <mxCell id="mWpVd9XelmYGsZtgVnFc-82" value="1" style="text;html=1;align=center;verticalAlign=middle;resizable=0;points=[];autosize=1;strokeColor=none;fillColor=none;" vertex="1" parent="1">
          <mxGeometry x="495" y="438" width="30" height="30" as="geometry" />
        </mxCell>
      </root>
    </mxGraphModel>
  </diagram>
</mxfile>
